<?xml version="1.0" encoding="UTF-8"?>
<!DOCTYPE svg PUBLIC "-//W3C//DTD SVG 1.1//EN" "http://www.w3.org/Graphics/SVG/1.1/DTD/svg11.dtd">
<!-- Creator: CorelDRAW 2018 -->
<svg xmlns="http://www.w3.org/2000/svg" xml:space="preserve" width="10.9765mm" height="10.8545mm" version="1.1" style="shape-rendering:geometricPrecision; text-rendering:geometricPrecision; image-rendering:optimizeQuality; fill-rule:evenodd; clip-rule:evenodd"
viewBox="0 0 23.53 23.27"
 xmlns:xlink="http://www.w3.org/1999/xlink">
 <defs>
  <style type="text/css">
   <![CDATA[
    .fil0 {fill:#264796}
   ]]>
  </style>
 </defs>
 <g id="подменю_x0020_2_x0020_значок_x0020_возможности">
  <metadata id="CorelCorpID_0Corel-Layer"/>
  <g id="_1093722760">
   <path class="fil0" d="M9.61 16.01l-0.37 0 0 -4.25c0,-0.58 0.43,-1.19 0.98,-1.33 0.06,-0.02 0.24,-0.04 0.28,-0.06l0.83 1.57 0.81 0c0.02,-0.09 0.15,-0.29 0.2,-0.38l0.62 -1.18c0.05,0.02 0.22,0.05 0.28,0.06 0.15,0.04 0.34,0.15 0.45,0.25 0.35,0.32 0.53,0.62 0.53,1.24l0 4.1 -0.35 0c0,-0.36 -0.05,-0.93 -0.04,-1.29 0,-0.11 -0,-0.22 0,-0.33l-0.02 -0.65c0,-0.34 0.09,-0.28 -0.5,-0.28 -0.09,0 -0.07,0.12 -0.07,0.22 0.01,0.58 0.05,1.17 0.04,1.74 -0,0.13 0.02,0.17 0.02,0.28 0.01,0.19 -0.01,0.41 0,0.59l0.04 1.44c0,0.13 0.02,0.16 0.02,0.28 0.01,0.41 0.02,0.75 0.02,1.16l0.07 2.33c0,0.4 0.02,0.76 0.02,1.18l-0.7 0 -0.63 -5.18c-0.01,-0.12 -0.03,-0.24 -0.04,-0.37 -0.01,-0.13 -0.04,-0.26 -0.04,-0.39 -0.16,0 -0.24,0.05 -0.4,0.03 -0.29,-0.04 -0.19,-0.12 -0.33,0.99 -0.07,0.54 -0.13,1.1 -0.2,1.65 -0.08,0.55 -0.12,1.08 -0.2,1.63 -0.04,0.28 -0.07,0.54 -0.1,0.82 -0.03,0.27 -0.08,0.57 -0.11,0.83l-0.7 0c0,-0.41 0.02,-0.75 0.02,-1.15l0.02 -0.87c0,-0.13 0.02,-0.16 0.02,-0.28 0.01,-0.41 0.02,-0.76 0.02,-1.16l0.06 -2.59c-0,-0.13 0.02,-0.17 0.02,-0.28 0.01,-0.19 -0.02,-0.42 0,-0.61 0.01,-0.18 0.02,-0.36 0.02,-0.57 -0,-0.22 0.02,-0.36 0.02,-0.59l0.02 -0.87c0,-0.29 0.08,-0.24 -0.48,-0.24 -0.14,0 -0.09,0.44 -0.09,0.59 0,0.51 -0.05,1.12 -0.04,1.68 0,0.11 0.04,0.28 -0.07,0.28zm-0.85 -4.34l0 4.86 0.94 0c0,1.03 -0.09,2.3 -0.09,3.33 0,0.29 -0.02,0.52 -0.02,0.83 0,0.17 -0.02,0.27 -0.02,0.41 -0,0.15 0,0.29 0,0.44 0,0.15 -0.02,0.23 -0.02,0.39 0,0.15 0,0.29 0,0.44 -0,0.15 -0.02,0.24 -0.02,0.41 0,0.15 0,0.29 0,0.44l1.79 0c0,-0.13 0.04,-0.37 0.06,-0.51l0.18 -1.56c0.03,-0.34 0.09,-0.7 0.13,-1.03l0.11 -1.06c0.06,0.09 0.13,0.92 0.14,1.03l0.35 2.94c0.01,0.11 -0.02,0.23 0.08,0.23l1.74 0c0,-0.17 -0.02,-0.27 -0.02,-0.41l-0.02 -1.29c0,-0.17 -0.02,-0.25 -0.02,-0.41 0,-0.15 0,-0.29 0,-0.44 0,-0.16 -0.02,-0.24 -0.02,-0.41 0,-0.84 -0.07,-1.71 -0.07,-2.55l-0.02 -0.85c0,-0.07 0,-0.15 -0,-0.22 -0.01,-0.06 -0.05,-0.13 0.05,-0.13l0.89 0 0 -4.73c0,-0.49 -0.18,-0.98 -0.5,-1.31 -0.16,-0.17 -0.17,-0.2 -0.4,-0.36 -0.42,-0.28 -0.69,-0.33 -1.24,-0.33l-0.81 1.55 -0.15 0c-0.23,-0.43 -0.56,-0.94 -0.79,-1.37 -0.12,-0.22 -0.05,-0.18 -0.41,-0.18 -0.66,0 -1.32,0.51 -1.63,1.12 -0.09,0.17 -0.18,0.49 -0.18,0.73z"/>
   <path class="fil0" d="M19.96 11.72c0,-1.15 1.12,-1.86 2.16,-1.44 0.34,0.14 0.62,0.42 0.78,0.74 0.29,0.58 0.18,1.42 -0.33,1.83 -0.2,0.16 -0.2,0.18 -0.47,0.29 -0.12,0.05 -0.47,0.14 -0.63,0.12 -0.26,-0.03 -0.4,-0.05 -0.62,-0.15 -0.35,-0.16 -0.6,-0.42 -0.76,-0.77 -0.08,-0.19 -0.14,-0.36 -0.14,-0.63zm-0.54 -0.28l-3.88 0 0 0.57 3.81 0c0.09,0 0.08,0.16 0.13,0.37 0.08,0.3 0.35,0.73 0.59,0.92 0.05,0.04 0.07,0.07 0.13,0.11 0.05,0.04 0.1,0.08 0.15,0.11 0.51,0.35 1.31,0.45 1.91,0.21 0.1,-0.04 0.2,-0.1 0.29,-0.14 0.24,-0.13 0.55,-0.42 0.7,-0.65 0.08,-0.12 0.28,-0.47 0.28,-0.64l0 -1.13c0,-0.31 -0.4,-0.86 -0.66,-1.06 -0.17,-0.13 -0.31,-0.24 -0.53,-0.32 -1.05,-0.42 -2.21,-0.02 -2.7,0.94 -0.09,0.18 -0.23,0.47 -0.23,0.73z"/>
   <path class="fil0" d="M17.36 5.34c0,-0.42 0.09,-0.74 0.35,-1.04 0.04,-0.05 0.04,-0.06 0.09,-0.11 0.14,-0.15 0.48,-0.36 0.7,-0.41 0.53,-0.14 1.15,0 1.54,0.39 0.62,0.62 0.62,1.61 0.01,2.22 -0.34,0.34 -0.7,0.45 -1.2,0.45 -0.77,0 -1.48,-0.73 -1.48,-1.5zm-0.52 -0.17c0,0.66 0.08,0.9 0.41,1.39l-2.96 2.97 0.4 0.41 2.96 -2.95c0.07,0.02 0.28,0.2 0.51,0.28 0.69,0.23 1.37,0.19 1.97,-0.24 0.24,-0.17 0.24,-0.2 0.4,-0.37 0.7,-0.75 0.7,-2.03 -0.11,-2.84 -0.08,-0.09 -0.16,-0.15 -0.26,-0.22 -0.26,-0.2 -0.74,-0.4 -1.11,-0.4 -0.61,0 -1.02,0.09 -1.48,0.48 -0.06,0.05 -0.08,0.06 -0.14,0.12 -0.15,0.15 -0.31,0.38 -0.41,0.57 -0.08,0.16 -0.2,0.54 -0.2,0.78z"/>
   <path class="fil0" d="M4.75 6.84c-0.3,0 -0.49,-0 -0.76,-0.14 -0.3,-0.15 -0.58,-0.43 -0.73,-0.73 -0.22,-0.44 -0.24,-0.92 -0.01,-1.36 0.1,-0.2 0.16,-0.28 0.31,-0.43 0.24,-0.24 0.61,-0.46 1,-0.46 0.57,0 0.83,0.06 1.26,0.48 0.96,0.95 0.22,2.63 -1.06,2.63zm-2.22 -1.59c0,0.35 0.06,0.66 0.19,0.92 0.25,0.49 0.54,0.8 1.03,1.04 0.57,0.28 1.36,0.25 1.91,-0.07 0.1,-0.06 0.16,-0.11 0.25,-0.17l2.88 2.89 0.41 -0.4 -2.89 -2.9 0.17 -0.26c0.4,-0.68 0.35,-1.51 -0.09,-2.17 -0.13,-0.2 -0.3,-0.37 -0.49,-0.51 -0.11,-0.08 -0.18,-0.13 -0.31,-0.19 -1.46,-0.72 -3.06,0.36 -3.06,1.82z"/>
   <path class="fil0" d="M0.48 11.7c0,-0.65 0.32,-1.13 0.83,-1.41 0.72,-0.39 1.78,-0.07 2.11,0.71 0.26,0.61 0.18,1.16 -0.23,1.68 -0.14,0.18 -0.33,0.3 -0.53,0.4 -1,0.48 -2.19,-0.28 -2.19,-1.38zm-0.48 -0.59l0 1.05c0,0.31 0.42,0.89 0.68,1.1 0.65,0.5 1.39,0.63 2.16,0.32 0.25,-0.1 0.42,-0.23 0.6,-0.38 0.13,-0.11 0.35,-0.39 0.43,-0.55 0.06,-0.11 0.11,-0.21 0.16,-0.35 0.18,-0.55 -0.16,-0.42 1.06,-0.42l2.72 0c0.24,0 0.2,0.07 0.2,-0.5 0,-0.05 -0.02,-0.07 -0.07,-0.07l-3.86 0c-0,-0.23 -0.14,-0.55 -0.22,-0.71 -0.26,-0.48 -0.77,-0.89 -1.31,-1.02 -0.89,-0.22 -1.81,0.16 -2.28,0.86 -0.08,0.12 -0.28,0.47 -0.28,0.65z"/>
   <path class="fil0" d="M11.87 3.66c-0.56,0 -1.01,-0.19 -1.33,-0.63 -0.31,-0.42 -0.4,-1.16 -0.13,-1.63 0.14,-0.24 0.31,-0.43 0.54,-0.58 0.43,-0.28 1.03,-0.34 1.51,-0.11 1.18,0.55 1.21,2.22 0.03,2.8 -0.16,0.08 -0.36,0.15 -0.61,0.15zm-2.18 -1.59c0,0.44 0.02,0.55 0.18,0.95 0.21,0.5 0.78,0.98 1.28,1.12 0.21,0.06 0.35,0.04 0.35,0.13l0 2.2 0.57 0 0 -2.2c0,-0.1 0.14,-0.06 0.35,-0.13 0.36,-0.11 0.62,-0.29 0.88,-0.55 0.32,-0.32 0.59,-0.82 0.59,-1.32 0,-0.53 0.01,-0.6 -0.21,-1.1 -0.29,-0.67 -1.13,-1.17 -1.88,-1.17 -0.28,0 -0.66,0.09 -0.86,0.19 -0.27,0.13 -0.41,0.22 -0.62,0.43 -0.38,0.38 -0.64,0.88 -0.64,1.45z"/>
   <path class="fil0" d="M11.87 9.13c-0.26,0 -0.43,-0.04 -0.62,-0.21 -0.3,-0.28 -0.32,-0.82 -0.02,-1.12 0.46,-0.48 1.36,-0.2 1.36,0.57 0,0.41 -0.4,0.76 -0.72,0.76zm-1.42 -0.85c0,0.43 0.11,0.71 0.4,1 0.26,0.26 0.45,0.36 0.89,0.41 0.29,0.04 0.73,-0.15 0.95,-0.35 0.21,-0.2 0.44,-0.55 0.44,-0.87 0,-0.49 -0.05,-0.73 -0.42,-1.11 -0.39,-0.39 -0.96,-0.47 -1.47,-0.26 -0.19,0.08 -0.43,0.28 -0.54,0.44 -0.14,0.2 -0.25,0.46 -0.25,0.73z"/>
  </g>
 </g>
</svg>
